<svg width="146" height="88" viewBox="0 0 146 88" fill="none" xmlns="http://www.w3.org/2000/svg">
<path d="M116.022 39.2238C119.006 10.8743 132.059 -2.4299 143.133 0.364449C144.626 0.741349 145.5 2.20439 145.5 3.74482V6.08015C145.5 9.09445 142.097 10.8884 139.111 11.2977C127.69 12.863 125.31 39.345 124.022 49.2238C115.522 96.7238 84.0217 84.7238 74.5217 77.7238C66.9217 72.1238 53.3551 57.3904 47.5217 50.7238L42.5217 48.2238C38.3551 45.5571 29.6217 40.0238 28.0217 39.2238C27.0786 38.7522 27.0157 38.1417 27.2595 37.6175C27.5678 36.9547 28.4355 36.9119 29.101 37.2143L33.5217 39.2238C30.8551 37.3904 25.6217 33.2238 26.0217 31.2238C26.4217 29.2238 27.5217 29.3904 28.0217 29.7238L30.0217 31.2238L37.0217 36.7238C34.6884 34.2238 29.8217 28.2238 29.0217 24.2238C28.6729 22.4794 28.8818 21.6225 29.3252 21.2799C30.5698 20.3183 31.9353 22.4221 32.881 23.6788C35.0353 26.5414 38.0403 29.7423 39.5217 31.2238C38.0217 29.3904 35.1217 25.2238 35.5217 23.2238C35.6118 22.7734 35.7881 22.4498 36.0186 22.2244C37.5118 20.7645 39.631 23.1377 40.7894 24.8753L46.0217 32.7238C45.5217 31.5571 44.6217 28.7238 45.0217 26.7238C45.1437 26.114 45.4236 25.7986 45.7822 25.6784C47.6712 25.0449 48.9092 27.6924 49.6492 29.5423L53.5217 39.2238C55.6884 42.7238 62.9217 52.6238 74.5217 64.2238C89.0217 78.7238 112.022 77.2238 116.022 39.2238Z" fill="#FF0000"/>
<path d="M90.0217 42.4999C93.0059 14.1504 106.059 0.846223 117.133 3.64057C118.626 4.01747 119.5 5.48052 119.5 7.02095V9.35627C119.5 12.3706 116.097 14.1645 113.111 14.5738C101.69 16.1392 99.3103 42.6211 98.0217 52.4999C89.5217 99.9999 58.0217 87.9999 48.5217 80.9999C40.9217 75.3999 27.3551 60.6666 21.5217 53.9999L16.5217 51.4999C12.3551 48.8332 3.62173 43.2999 2.02173 42.4999C1.07862 42.0283 1.0157 41.4178 1.25954 40.8936C1.56781 40.2308 2.43552 40.188 3.10095 40.4904L7.52173 42.4999C4.85506 40.6666 -0.378273 36.4999 0.0217285 34.4999C0.42173 32.4999 1.52173 32.6666 2.02173 32.9999L4.02173 34.4999L11.0217 39.9999C8.68839 37.4999 3.82173 31.4999 3.02173 27.4999C2.67285 25.7555 2.88184 24.8986 3.32523 24.556C4.56985 23.5944 5.93527 25.6982 6.88101 26.9549C9.03526 29.8175 12.0403 33.0185 13.5217 34.4999C12.0217 32.6666 9.12173 28.4999 9.52173 26.4999C9.6118 26.0495 9.78809 25.7259 10.0186 25.5005C11.5118 24.0406 13.631 26.4139 14.7894 28.1515L20.0217 35.9999C19.5217 34.8332 18.6217 31.9999 19.0217 29.9999C19.1437 29.3902 19.4236 29.0748 19.7822 28.9545C21.6712 28.321 22.9092 30.9686 23.6492 32.8185L27.5217 42.4999C29.6884 45.9999 36.9217 55.8999 48.5217 67.4999C63.0217 81.9999 86.0217 80.4999 90.0217 42.4999Z" fill="#FF9100"/>
</svg>
